<mxfile host="app.diagrams.net" agent="Mozilla/5.0 (Windows NT 10.0; Win64; x64) AppleWebKit/537.36 (KHTML, like Gecko) Chrome/133.0.0.0 Safari/537.36" version="26.0.11">
  <diagram name="Page-1" id="owDri8EoIXoh3Ad4VUPJ">
    <mxGraphModel dx="1434" dy="738" grid="1" gridSize="10" guides="1" tooltips="1" connect="1" arrows="1" fold="1" page="1" pageScale="1" pageWidth="850" pageHeight="1100" math="0" shadow="0">
      <root>
        <mxCell id="0" />
        <mxCell id="1" parent="0" />
        <mxCell id="dhuSCgkcEH-hk22cIi9C-9" value="" style="edgeStyle=orthogonalEdgeStyle;rounded=0;orthogonalLoop=1;jettySize=auto;html=1;" edge="1" parent="1" source="dhuSCgkcEH-hk22cIi9C-2" target="dhuSCgkcEH-hk22cIi9C-5">
          <mxGeometry relative="1" as="geometry" />
        </mxCell>
        <mxCell id="dhuSCgkcEH-hk22cIi9C-2" value="" style="image;aspect=fixed;html=1;points=[];align=center;fontSize=12;image=img/lib/azure2/iot/Function_Apps.svg;" vertex="1" parent="1">
          <mxGeometry x="280" y="482" width="68" height="60" as="geometry" />
        </mxCell>
        <mxCell id="dhuSCgkcEH-hk22cIi9C-8" value="" style="edgeStyle=orthogonalEdgeStyle;rounded=0;orthogonalLoop=1;jettySize=auto;html=1;" edge="1" parent="1" source="dhuSCgkcEH-hk22cIi9C-3" target="dhuSCgkcEH-hk22cIi9C-2">
          <mxGeometry relative="1" as="geometry" />
        </mxCell>
        <mxCell id="dhuSCgkcEH-hk22cIi9C-3" value="" style="image;aspect=fixed;html=1;points=[];align=center;fontSize=12;image=img/lib/azure2/iot/IoT_Hub.svg;" vertex="1" parent="1">
          <mxGeometry x="150" y="480" width="64" height="64" as="geometry" />
        </mxCell>
        <mxCell id="dhuSCgkcEH-hk22cIi9C-4" value="" style="image;aspect=fixed;html=1;points=[];align=center;fontSize=12;image=img/lib/azure2/app_services/App_Services.svg;" vertex="1" parent="1">
          <mxGeometry x="600" y="480" width="64" height="64" as="geometry" />
        </mxCell>
        <mxCell id="dhuSCgkcEH-hk22cIi9C-10" value="" style="edgeStyle=orthogonalEdgeStyle;rounded=0;orthogonalLoop=1;jettySize=auto;html=1;" edge="1" parent="1" source="dhuSCgkcEH-hk22cIi9C-5" target="dhuSCgkcEH-hk22cIi9C-6">
          <mxGeometry relative="1" as="geometry" />
        </mxCell>
        <mxCell id="dhuSCgkcEH-hk22cIi9C-5" value="" style="verticalLabelPosition=bottom;html=1;verticalAlign=top;align=center;strokeColor=none;fillColor=#00BEF2;shape=mxgraph.azure.storage_blob;" vertex="1" parent="1">
          <mxGeometry x="390" y="489.5" width="50" height="45" as="geometry" />
        </mxCell>
        <mxCell id="dhuSCgkcEH-hk22cIi9C-11" value="" style="edgeStyle=orthogonalEdgeStyle;rounded=0;orthogonalLoop=1;jettySize=auto;html=1;" edge="1" parent="1" source="dhuSCgkcEH-hk22cIi9C-6" target="dhuSCgkcEH-hk22cIi9C-4">
          <mxGeometry relative="1" as="geometry" />
        </mxCell>
        <mxCell id="dhuSCgkcEH-hk22cIi9C-6" value="" style="image;aspect=fixed;html=1;points=[];align=center;fontSize=12;image=img/lib/azure2/analytics/Power_BI_Embedded.svg;" vertex="1" parent="1">
          <mxGeometry x="490" y="478" width="51" height="68" as="geometry" />
        </mxCell>
      </root>
    </mxGraphModel>
  </diagram>
</mxfile>
